<svg height="1918" width="720" xmlns="http://www.w3.org/2000/svg">
<rect height="1918" fill="#555" width="720"></rect>
<text fill="#7f7" font-family="Courier New" font-size="12" xml:space="preserve">
<tspan x="10" y="26"></tspan>
<tspan x="10" y="42">&gt; npmdoc-webpack-dev-server@0.0.1 test /home/travis/build/npmdoc/node-npmdoc-webpack-dev-server</tspan>
<tspan x="10" y="58">&gt; (set -e; export PORT=$(utility2 shServerPortRandom); utility2 test test.js)</tspan>
<tspan x="10" y="74"></tspan>
<tspan x="10" y="90"></tspan>
<tspan x="10" y="106">[MODE_BUILD=npmTest] - 2017-04-07T20:16:02Z - npm-testing /home/travis/build/npmdoc/node-npmdoc-\</tspan>
<tspan x="10" y="122">webpack-dev-server</tspan>
<tspan x="10" y="138"></tspan>
<tspan x="10" y="154"></tspan>
<tspan x="10" y="170">covering $ /home/travis/.nvm/versions/node/v6.10.2/bin/node /home/travis/build/npmdoc/node-npmdo\</tspan>
<tspan x="10" y="186">c-webpack-dev-server/test.js</tspan>
<tspan x="10" y="202">merging file:///home/travis/build/npmdoc/node-npmdoc-webpack-dev-server/tmp/build/test-report.js\</tspan>
<tspan x="10" y="218">on to test-report</tspan>
<tspan x="10" y="234">&gt; server listening on http-port 63998</tspan>
<tspan x="10" y="250">created apidoc file:///home/travis/build/npmdoc/node-npmdoc-webpack-dev-server/tmp/build/apidoc.\</tspan>
<tspan x="10" y="266">html</tspan>
<tspan x="10" y="282"></tspan>
<tspan x="10" y="298"></tspan>
<tspan x="10" y="314">browserTest - created electron entry-page /home/travis/build/npmdoc/node-npmdoc-webpack-dev-serv\</tspan>
<tspan x="10" y="330">er/tmp/electron.15b4a0f3c920.ba596a8599188.html</tspan>
<tspan x="10" y="346"></tspan>
<tspan x="10" y="362">Xlib:  extension "RANDR" missing on display ":99.0".</tspan>
<tspan x="10" y="378">[node test-case 1 of 6 passed] - testCase_buildLib_default</tspan>
<tspan x="10" y="394">[node test-case 2 of 6 passed] - testCase_buildReadme_default</tspan>
<tspan x="10" y="410">[node test-case 3 of 6 passed] - testCase_buildTest_default</tspan>
<tspan x="10" y="426"></tspan>
<tspan x="10" y="442">browserTest - created electron entry-page /home/travis/build/npmdoc/node-npmdoc-webpack-dev-serv\</tspan>
<tspan x="10" y="458">er/tmp/electron.15b4a0f3d460.6ab6d1fba72c3.html</tspan>
<tspan x="10" y="474"></tspan>
<tspan x="10" y="490">Xlib:  extension "RANDR" missing on display ":99.0".</tspan>
<tspan x="10" y="506">merging file:///home/travis/build/npmdoc/node-npmdoc-webpack-dev-server/tmp/build/test-report.js\</tspan>
<tspan x="10" y="522">on to test-report</tspan>
<tspan x="10" y="538">Xlib:  extension "RANDR" missing on display ":99.0".</tspan>
<tspan x="10" y="554">[4818:0407/201605:WARNING:audio_manager.cc(314)] Multiple instances of AudioManager detected</tspan>
<tspan x="10" y="570">[4818:0407/201605:WARNING:audio_manager.cc(275)] Multiple instances of AudioManager detected</tspan>
<tspan x="10" y="586">[4857:0407/201605:ERROR:sandbox_linux.cc(343)] InitializeSandbox() called with multiple threads \</tspan>
<tspan x="10" y="602">in process gpu-process. </tspan>
<tspan x="10" y="618">&gt; server listening on http-port 64988</tspan>
<tspan x="10" y="634">merging file:///home/travis/build/npmdoc/node-npmdoc-webpack-dev-server/tmp/build/test-report.js\</tspan>
<tspan x="10" y="650">on to test-report</tspan>
<tspan x="10" y="666">Xlib:  extension "RANDR" missing on display ":99.0".</tspan>
<tspan x="10" y="682"></tspan>
<tspan x="10" y="698">browserTest - opened url /home/travis/build/npmdoc/node-npmdoc-webpack-dev-server/tmp/build/apid\</tspan>
<tspan x="10" y="714">oc.html</tspan>
<tspan x="10" y="730"></tspan>
<tspan x="10" y="746">[4830:0407/201605:WARNING:audio_manager.cc(314)] Multiple instances of AudioManager detected</tspan>
<tspan x="10" y="762">[4830:0407/201605:WARNING:audio_manager.cc(275)] Multiple instances of AudioManager detected</tspan>
<tspan x="10" y="778">[4900:0407/201605:ERROR:sandbox_linux.cc(343)] InitializeSandbox() called with multiple threads \</tspan>
<tspan x="10" y="794">in process gpu-process. </tspan>
<tspan x="10" y="810">[4830:0407/201605:ERROR:browser_gpu_channel_host_factory.cc(131)] Failed to create channel.</tspan>
<tspan x="10" y="826"></tspan>
<tspan x="10" y="842">browserTest - opened url http://127.0.0.1:63998?modeTest=1</tspan>
<tspan x="10" y="858"></tspan>
<tspan x="10" y="874">[4830:0407/201607:INFO:CONSOLE(249)] "----------|-----------|-----------|-----------|-----------\</tspan>
<tspan x="10" y="890">|</tspan>
<tspan x="10" y="906">File      |   % Stmts |% Branches |   % Funcs |   % Lines |</tspan>
<tspan x="10" y="922">----------|-----------|-----------|-----------|-----------|</tspan>
<tspan x="10" y="938">----------|-----------|-----------|-----------|-----------|</tspan>
<tspan x="10" y="954">All files |       100 |       100 |       100 |       100 |</tspan>
<tspan x="10" y="970">----------|-----------|-----------|-----------|-----------|</tspan>
<tspan x="10" y="986">", source: file:///home/travis/build/npmdoc/node-npmdoc-webpack-dev-server/tmp/electron.15b4a0f3\</tspan>
<tspan x="10" y="1002">d460.6ab6d1fba72c3.html (249)</tspan>
<tspan x="10" y="1018">[4830:0407/201607:INFO:CONSOLE(249)] "created coverage file:///tmp/build/coverage.html/index.htm\</tspan>
<tspan x="10" y="1034">l", source: file:///home/travis/build/npmdoc/node-npmdoc-webpack-dev-server/tmp/electron.15b4a0f\</tspan>
<tspan x="10" y="1050">3d460.6ab6d1fba72c3.html (249)</tspan>
<tspan x="10" y="1066">[node test-case 4 of 6 passed] - testCase_buildApp_default</tspan>
<tspan x="10" y="1082"></tspan>
<tspan x="10" y="1098">browserTest - exit-code 1 - /home/travis/build/npmdoc/node-npmdoc-webpack-dev-server/tmp/build/a\</tspan>
<tspan x="10" y="1114">pidoc.html</tspan>
<tspan x="10" y="1130"></tspan>
<tspan x="10" y="1146">[node test-case 5 of 6 passed] - testCase_buildApidoc_default</tspan>
<tspan x="10" y="1162"></tspan>
<tspan x="10" y="1178">browserTest - created screenCapture file:///home/travis/build/npmdoc/node-npmdoc-webpack-dev-ser\</tspan>
<tspan x="10" y="1194">ver/tmp/build/screenCapture.%2F.png</tspan>
<tspan x="10" y="1210"></tspan>
<tspan x="10" y="1226">browserTest - created screenCapture file:///home/travis/build/npmdoc/node-npmdoc-webpack-dev-ser\</tspan>
<tspan x="10" y="1242">ver/tmp/build/screenCapture.%2F.html</tspan>
<tspan x="10" y="1258"></tspan>
<tspan x="10" y="1274">browserTest - exit-code 0 - http://127.0.0.1:63998?modeTest=1</tspan>
<tspan x="10" y="1290"></tspan>
<tspan x="10" y="1306"></tspan>
<tspan x="10" y="1322">browserTest - merged coverage from /home/travis/build/npmdoc/node-npmdoc-webpack-dev-server/tmp/\</tspan>
<tspan x="10" y="1338">coverage.%2F.json</tspan>
<tspan x="10" y="1354"></tspan>
<tspan x="10" y="1370"></tspan>
<tspan x="10" y="1386">browserTest - merging test-report from /home/travis/build/npmdoc/node-npmdoc-webpack-dev-server/\</tspan>
<tspan x="10" y="1402">tmp/test-report.%2F.json</tspan>
<tspan x="10" y="1418"></tspan>
<tspan x="10" y="1434">[node test-case 6 of 6 passed] - testCase_webpage_default</tspan>
<tspan x="10" y="1450">---------------------------------------|-----------|-----------|-----------|-----------|</tspan>
<tspan x="10" y="1466">File                                   |   % Stmts |% Branches |   % Funcs |   % Lines |</tspan>
<tspan x="10" y="1482">---------------------------------------|-----------|-----------|-----------|-----------|</tspan>
<tspan x="10" y="1498">   node-npmdoc-webpack-dev-server/     |       100 |       100 |       100 |       100 |</tspan>
<tspan x="10" y="1514">      example.js                       |       100 |       100 |       100 |       100 |</tspan>
<tspan x="10" y="1530">      lib.npmdoc_webpack_dev_server.js |       100 |       100 |       100 |       100 |</tspan>
<tspan x="10" y="1546">      test.js                          |       100 |       100 |       100 |       100 |</tspan>
<tspan x="10" y="1562">---------------------------------------|-----------|-----------|-----------|-----------|</tspan>
<tspan x="10" y="1578">All files                              |       100 |       100 |       100 |       100 |</tspan>
<tspan x="10" y="1594">---------------------------------------|-----------|-----------|-----------|-----------|</tspan>
<tspan x="10" y="1610"></tspan>
<tspan x="10" y="1626">created coverage file:///home/travis/build/npmdoc/node-npmdoc-webpack-dev-server/tmp/build/cover\</tspan>
<tspan x="10" y="1642">age.html/index.html</tspan>
<tspan x="10" y="1658">merging file:///home/travis/build/npmdoc/node-npmdoc-webpack-dev-server/tmp/build/test-report.js\</tspan>
<tspan x="10" y="1674">on to test-report</tspan>
<tspan x="10" y="1690"></tspan>
<tspan x="10" y="1706">-------------------------------------------------------</tspan>
<tspan x="10" y="1722">| test-report - buildNpmdoc - node - linux v6.10.2 - 2017-04-07T20:15:42.029Z</tspan>
<tspan x="10" y="1738">|   37867 ms            0 failed        6 passed      |</tspan>
<tspan x="10" y="1754">-------------------------------------------------------</tspan>
<tspan x="10" y="1770"></tspan>
<tspan x="10" y="1786">created test-report file:///home/travis/build/npmdoc/node-npmdoc-webpack-dev-server/tmp/build/te\</tspan>
<tspan x="10" y="1802">st-report.html</tspan>
<tspan x="10" y="1818"></tspan>
<tspan x="10" y="1834"></tspan>
<tspan x="10" y="1850">npmTest - 0 failed tests</tspan>
<tspan x="10" y="1866"></tspan>
<tspan x="10" y="1882"></tspan>
<tspan x="10" y="1898">[MODE_BUILD=npmTest] - 2017-04-07T20:16:22Z - EXIT_CODE - 0</tspan>
</text>
</svg>
